<?xml version="1.0" standalone="no"?>
<!DOCTYPE svg PUBLIC "-//W3C//DTD SVG 20010904//EN"
 "http://www.w3.org/TR/2001/REC-SVG-20010904/DTD/svg10.dtd">
<svg version="1.0" xmlns="http://www.w3.org/2000/svg"
 width="225.000000pt" height="225.000000pt" viewBox="0 0 225.000000 225.000000"
 preserveAspectRatio="xMidYMid meet">

<g transform="translate(0.000000,225.000000) scale(0.100000,-0.100000)"
fill="#000000" stroke="none">
<path d="M700 2180 l0 -70 -70 0 -70 0 0 -70 0 -70 -70 0 -70 0 0 -70 0 -70
-70 0 -70 0 0 -70 0 -70 -70 0 -70 0 0 -70 0 -70 -70 0 -70 0 0 -425 0 -425
70 0 70 0 0 -70 0 -70 70 0 70 0 0 -70 0 -70 70 0 70 0 0 -140 0 -140 70 0 70
0 0 -70 0 -70 285 0 285 0 0 70 0 70 70 0 70 0 0 -70 0 -70 280 0 280 0 0 70
0 70 70 0 70 0 0 490 0 490 70 0 70 0 0 285 0 285 -70 0 -70 0 0 140 0 140
-70 0 -70 0 0 70 0 70 -70 0 -70 0 0 70 0 70 -495 0 -495 0 0 -70z m1130 -560
l0 -70 70 0 70 0 0 -145 0 -145 -70 0 -70 0 0 -70 0 -70 -282 2 -283 3 -3 67
-3 67 -67 3 -67 3 -3 143 -3 142 71 0 70 0 0 70 0 70 285 0 285 0 0 -70z"/>
</g>
</svg>
